<svg xmlns="http://www.w3.org/2000/svg" xmlns:xlink="http://www.w3.org/1999/xlink" width="1500" zoomAndPan="magnify" viewBox="0 0 1125 374.999991" height="500" preserveAspectRatio="xMidYMid meet" version="1.0"><defs><g/><clipPath id="acefca32d1"><path d="M 117.160156 95 L 291.910156 95 L 291.910156 281.316406 L 117.160156 281.316406 Z M 117.160156 95 " clip-rule="nonzero"/></clipPath></defs><g clip-path="url(#acefca32d1)"><path fill="#00bf63" d="M 281.710938 202.464844 C 280.832031 211.757812 278.242188 220.867188 274.164062 229.289062 C 266.074219 246.175781 251.636719 259.964844 234.363281 267.53125 C 225.722656 271.285156 216.390625 273.484375 206.9375 274.035156 C 197.472656 274.566406 187.914062 273.414062 178.832031 270.652344 C 174.675781 269.390625 170.628906 267.777344 166.730469 265.828125 L 262.277344 206.027344 L 241.417969 190.988281 L 275.132812 162.441406 C 276.914062 166.421875 278.355469 170.558594 279.515625 174.785156 C 280.640625 179.285156 281.441406 183.875 281.824219 188.519531 C 282.140625 193.152344 282.164062 197.832031 281.710938 202.464844 Z M 291.640625 187.855469 C 291.324219 182.632812 290.535156 177.4375 289.375 172.328125 C 288.101562 167.242188 286.46875 162.238281 284.382812 157.425781 C 282.230469 152.632812 279.71875 148 276.8125 143.613281 C 273.847656 139.269531 270.558594 135.15625 266.917969 131.335938 C 263.34375 127.671875 259.480469 124.289062 255.367188 121.222656 L 255.425781 121.164062 L 254.601562 120.386719 L 185.765625 194.144531 L 185.222656 194.71875 L 222.824219 211.359375 L 165.074219 264.980469 C 152.625 258.429688 141.839844 248.601562 134.269531 236.605469 C 129.128906 228.507812 125.445312 219.488281 123.417969 210.085938 C 121.421875 200.671875 121.128906 190.886719 122.449219 181.316406 C 123.832031 171.753906 126.921875 162.429688 131.550781 153.894531 C 135.597656 146.386719 140.882812 139.519531 147.089844 133.625 C 156.882812 139.125 169.175781 142.484375 180.875 142.472656 C 191.566406 142.472656 201.753906 139.679688 209.089844 133.164062 C 222.160156 121.539062 229.40625 97.308594 229.472656 97.070312 L 229.722656 96.25 L 228.863281 96.351562 C 228.71875 96.371094 213.628906 98.144531 185.222656 96.046875 C 155.046875 93.816406 147.214844 123.238281 147.148438 123.542969 C 147.148438 123.542969 170.53125 107.691406 196.242188 109.871094 C 188.671875 110.421875 181.15625 111.976562 173.964844 114.535156 C 164.558594 117.90625 155.769531 122.992188 148.09375 129.417969 C 140.421875 135.855469 133.839844 143.65625 128.871094 152.40625 C 123.890625 161.144531 120.441406 170.785156 118.785156 180.75 C 117.183594 190.71875 117.265625 200.976562 119.144531 210.945312 C 121.0625 220.898438 124.757812 230.527344 130.019531 239.242188 C 140.511719 256.695312 157.425781 270.246094 176.917969 276.652344 C 186.664062 279.839844 196.976562 281.320312 207.253906 280.96875 C 217.515625 280.597656 227.761719 278.421875 237.316406 274.507812 C 256.417969 266.652344 272.675781 251.847656 282.105469 233.257812 C 286.839844 223.988281 289.960938 213.863281 291.167969 203.492188 C 291.785156 198.304688 291.890625 193.074219 291.640625 187.855469 " fill-opacity="1" fill-rule="nonzero"/></g><g fill="#393536" fill-opacity="1"><g transform="translate(376.407218, 207.574673)"><g><path d="M 37.199219 1.085938 C 47.496094 1.085938 56.632812 -1.8125 62.21875 -7.976562 C 59.753906 -13.921875 57.503906 -21.609375 57.503906 -21.609375 C 57.503906 -21.609375 52.429688 -12.835938 39.882812 -12.835938 C 33.429688 -12.835938 27.410156 -15.300781 23.496094 -20.230469 C 20.449219 -27.339844 27.484375 -30.601562 36.257812 -30.601562 C 41.914062 -30.601562 47.640625 -28.136719 50.542969 -25.671875 L 50.542969 -41.695312 C 49.382812 -43.871094 44.304688 -45.757812 39.882812 -45.757812 C 28.351562 -45.757812 20.304688 -36.257812 21.101562 -24.074219 C 19.652344 -27.046875 18.855469 -30.671875 18.855469 -34.953125 C 18.855469 -49.890625 28.714844 -57.214844 39.882812 -57.214844 C 52.429688 -57.214844 57.503906 -48.441406 57.503906 -48.441406 C 57.503906 -48.441406 59.753906 -56.125 62.21875 -62.074219 C 56.632812 -68.234375 47.496094 -71.0625 37.199219 -71.0625 C 16.097656 -71.0625 2.539062 -54.894531 2.539062 -35.023438 C 2.539062 -15.15625 16.097656 1.085938 37.199219 1.085938 Z M 37.199219 1.085938 "/></g></g></g><g fill="#393536" fill-opacity="1"><g transform="translate(447.394769, 207.574673)"><g><path d="M -2.902344 -43.363281 C 4.0625 -43.363281 4.207031 -35.023438 4.207031 -32.992188 L 4.207031 -8.992188 C 4.207031 -5.367188 3.335938 -1.449219 1.667969 0 L 21.609375 0 C 19.941406 -1.449219 19.070312 -5.4375 19.070312 -9.0625 L 19.070312 -32.339844 C 20.085938 -35.75 22.335938 -39.230469 26.902344 -39.230469 C 30.457031 -39.230469 33.210938 -36.621094 33.210938 -31.980469 L 33.210938 -8.992188 C 33.210938 -5.367188 32.339844 -1.449219 30.671875 0 L 50.613281 0 C 48.949219 -1.449219 48.078125 -5.4375 48.078125 -9.0625 L 48.078125 -35.605469 C 48.078125 -46.554688 42.421875 -51.847656 33.210938 -51.847656 C 30.527344 -51.847656 28.351562 -51.050781 26.46875 -49.960938 L 19.070312 -35.167969 L 19.070312 -51.847656 C 14.210938 -48.875 4.277344 -44.089844 -2.902344 -43.726562 Z M -2.902344 -43.363281 "/></g></g></g><g fill="#393536" fill-opacity="1"><g transform="translate(508.231194, 207.574673)"><g><path d="M 15.953125 0 L 28.789062 0 C 35.675781 -13.558594 45.25 -27.554688 45.25 -39.230469 C 45.25 -45.683594 42.636719 -50.324219 37.925781 -51.847656 C 33.429688 -49.164062 28.28125 -46.335938 23.058594 -44.960938 L 23.058594 -44.597656 C 28.207031 -44.597656 30.820312 -40.390625 30.820312 -36.257812 C 30.820312 -31.035156 27.628906 -24.4375 25.015625 -19.722656 L 15.226562 -50.761719 L 0 -50.761719 Z M 15.953125 0 "/></g></g></g><g fill="#393536" fill-opacity="1"><g transform="translate(564.427098, 207.574673)"><g><path d="M -2.902344 -43.726562 L -2.902344 -43.363281 C 4.0625 -43.363281 4.207031 -35.023438 4.207031 -32.992188 L 4.207031 -8.992188 C 4.207031 -5.367188 3.335938 -1.449219 1.667969 0 L 21.609375 0 C 19.941406 -1.449219 19.070312 -5.4375 19.070312 -9.0625 L 19.070312 -51.847656 C 14.210938 -48.875 4.277344 -44.089844 -2.902344 -43.726562 Z M 11.890625 -55.328125 C 17.257812 -55.328125 21.609375 -59.679688 21.609375 -64.972656 C 21.609375 -70.339844 17.257812 -74.691406 11.890625 -74.691406 C 6.597656 -74.691406 2.246094 -70.339844 2.246094 -64.972656 C 2.246094 -59.679688 6.597656 -55.328125 11.890625 -55.328125 Z M 11.890625 -55.328125 "/></g></g></g><g fill="#393536" fill-opacity="1"><g transform="translate(596.26031, 207.574673)"><g><path d="M -2.902344 -43.726562 L -2.902344 -43.363281 C 4.0625 -43.363281 4.207031 -35.023438 4.207031 -32.992188 L 4.207031 -8.992188 C 4.207031 -5.367188 3.335938 -1.449219 1.667969 0 L 21.609375 0 C 19.941406 -1.449219 19.070312 -5.4375 19.070312 -9.0625 L 19.070312 -32.195312 C 19.070312 -36.183594 21.753906 -38.359375 27.191406 -38.359375 C 30.964844 -38.359375 35.097656 -36.621094 36.257812 -34.589844 C 37.054688 -39.375 38.359375 -44.8125 39.738281 -49.238281 C 38.796875 -50.46875 35.605469 -51.847656 32.703125 -51.847656 C 25.089844 -51.847656 20.449219 -44.015625 19.070312 -37.636719 L 19.070312 -51.847656 C 14.210938 -48.875 4.277344 -44.089844 -2.902344 -43.726562 Z M -2.902344 -43.726562 "/></g></g></g><g fill="#393536" fill-opacity="1"><g transform="translate(647.670695, 207.574673)"><g><path d="M 26.757812 1.085938 C 41.550781 1.085938 51.414062 -9.5 51.414062 -25.378906 C 51.414062 -41.261719 41.550781 -51.847656 26.757812 -51.847656 C 12.039062 -51.847656 2.175781 -41.261719 2.175781 -25.378906 C 2.175781 -9.5 12.039062 1.085938 26.757812 1.085938 Z M 17.402344 -25.308594 C 17.402344 -32.992188 20.957031 -38.070312 26.757812 -38.070312 C 32.558594 -38.070312 36.183594 -32.992188 36.183594 -25.308594 C 36.183594 -17.695312 32.558594 -12.617188 26.757812 -12.617188 C 20.957031 -12.617188 17.402344 -17.695312 17.402344 -25.308594 Z M 17.402344 -25.308594 "/></g></g></g><g fill="#393536" fill-opacity="1"><g transform="translate(710.029802, 207.574673)"><g><path d="M 1.449219 0 L 22.84375 0 C 21.175781 -1.449219 20.304688 -5.367188 20.304688 -8.992188 L 20.304688 -36.183594 L 27.992188 -18.5625 C 28.859375 -18.054688 30.3125 -17.621094 31.6875 -17.621094 C 46.480469 -17.621094 56.632812 -30.019531 56.632812 -44.304688 C 56.632812 -59.246094 45.828125 -69.976562 27.339844 -69.976562 L 1.449219 -69.976562 C 3.117188 -68.527344 3.988281 -64.539062 3.988281 -60.914062 L 3.988281 -9.0625 C 3.988281 -5.4375 3.117188 -1.449219 1.449219 0 Z M 28.570312 -56.199219 C 36.546875 -56.199219 40.316406 -50.398438 40.316406 -44.304688 C 40.316406 -37.488281 37.128906 -31.472656 30.09375 -31.472656 C 24.945312 -31.472656 22.40625 -34.226562 20.304688 -38.941406 L 20.304688 -56.199219 Z M 28.570312 -56.199219 "/></g></g></g><g fill="#393536" fill-opacity="1"><g transform="translate(776.884409, 207.574673)"><g><path d="M 2.539062 -34.953125 C 2.539062 -15.082031 12.398438 1.085938 35.316406 1.085938 C 58.230469 1.085938 68.089844 -15.082031 68.089844 -34.953125 C 68.089844 -54.894531 58.230469 -71.0625 35.316406 -71.0625 C 12.398438 -71.0625 2.539062 -54.894531 2.539062 -34.953125 Z M 18.855469 -35.023438 C 18.855469 -47.207031 23.785156 -57.070312 35.242188 -57.070312 C 46.84375 -57.070312 51.777344 -47.207031 51.777344 -35.023438 C 51.777344 -22.914062 46.84375 -12.980469 35.242188 -12.980469 C 23.785156 -12.980469 18.855469 -22.914062 18.855469 -35.023438 Z M 18.855469 -35.023438 "/></g></g></g><g fill="#393536" fill-opacity="1"><g transform="translate(856.282882, 207.574673)"><g><path d="M 1.449219 -11.890625 C 3.335938 -5.65625 15.011719 1.085938 27.191406 1.085938 C 43.4375 1.085938 55.835938 -7.179688 55.835938 -21.390625 C 55.835938 -45.972656 21.390625 -38.214844 21.390625 -49.746094 C 21.390625 -54.457031 27.121094 -56.34375 31.761719 -56.34375 C 38.289062 -56.34375 44.089844 -53.007812 48.222656 -49.238281 C 50.6875 -54.097656 53.878906 -58.230469 56.34375 -62 C 51.992188 -65.699219 45.25 -71.0625 31.398438 -71.0625 C 17.113281 -71.0625 2.828125 -63.015625 2.828125 -49.308594 C 2.828125 -24.4375 37.996094 -30.671875 37.996094 -20.015625 C 37.996094 -15.082031 32.992188 -13.125 27.628906 -13.125 C 20.230469 -13.125 13.488281 -18.128906 9.71875 -24.148438 C 7.613281 -19.867188 4.570312 -15.664062 1.449219 -11.890625 Z M 1.449219 -11.890625 "/></g></g></g><g fill="#00bf63" fill-opacity="1"><g transform="translate(400.782204, 250.285162)"><g><path d="M 2.015625 0 L 2.015625 -19.046875 L 4.296875 -19.046875 L 4.296875 -1.828125 L 13.171875 -1.828125 L 13.171875 0 Z M 2.015625 0 "/></g></g></g><g fill="#00bf63" fill-opacity="1"><g transform="translate(436.818546, 250.285162)"><g><path d="M 2.015625 0 L 2.015625 -19.046875 L 13.796875 -19.046875 L 13.796875 -17.171875 L 4.296875 -17.171875 L 4.296875 -10.53125 L 12.96875 -10.53125 L 12.96875 -8.671875 L 4.296875 -8.671875 L 4.296875 -1.875 L 13.796875 -1.875 L 13.796875 0 Z M 2.015625 0 "/></g></g></g><g fill="#00bf63" fill-opacity="1"><g transform="translate(473.915567, 250.285162)"><g><path d="M 0.8125 0 L 7.828125 -19.046875 L 10.25 -19.046875 L 17.25 0 L 14.828125 0 L 13.078125 -4.890625 L 4.984375 -4.890625 L 3.203125 0 Z M 5.65625 -6.75 L 12.40625 -6.75 L 9.03125 -16.15625 Z M 5.65625 -6.75 "/></g></g></g><g fill="#00bf63" fill-opacity="1"><g transform="translate(513.732312, 250.285162)"><g><path d="M 2.015625 0 L 2.015625 -19.046875 L 7.859375 -19.046875 C 11.210938 -19.046875 13.679688 -18.191406 15.265625 -16.484375 C 16.859375 -14.773438 17.65625 -12.4375 17.65625 -9.46875 C 17.65625 -6.550781 16.859375 -4.242188 15.265625 -2.546875 C 13.679688 -0.847656 11.210938 0 7.859375 0 Z M 4.296875 -1.90625 L 7.8125 -1.90625 C 9.65625 -1.90625 11.125 -2.207031 12.21875 -2.8125 C 13.320312 -3.425781 14.109375 -4.296875 14.578125 -5.421875 C 15.046875 -6.554688 15.28125 -7.90625 15.28125 -9.46875 C 15.28125 -11.0625 15.046875 -12.425781 14.578125 -13.5625 C 14.109375 -14.707031 13.320312 -15.585938 12.21875 -16.203125 C 11.125 -16.828125 9.65625 -17.140625 7.8125 -17.140625 L 4.296875 -17.140625 Z M 4.296875 -1.90625 "/></g></g></g><g fill="#00bf63" fill-opacity="1"><g transform="translate(554.41937, 250.285162)"><g><path d="M 2.015625 0 L 2.015625 -19.046875 L 13.796875 -19.046875 L 13.796875 -17.171875 L 4.296875 -17.171875 L 4.296875 -10.53125 L 12.96875 -10.53125 L 12.96875 -8.671875 L 4.296875 -8.671875 L 4.296875 -1.875 L 13.796875 -1.875 L 13.796875 0 Z M 2.015625 0 "/></g></g></g><g fill="#00bf63" fill-opacity="1"><g transform="translate(591.516396, 250.285162)"><g><path d="M 2.015625 0 L 2.015625 -19.046875 L 8.15625 -19.046875 C 9.644531 -19.046875 10.859375 -18.800781 11.796875 -18.3125 C 12.742188 -17.820312 13.441406 -17.148438 13.890625 -16.296875 C 14.347656 -15.441406 14.578125 -14.5 14.578125 -13.46875 C 14.578125 -12.269531 14.253906 -11.1875 13.609375 -10.21875 C 12.972656 -9.257812 11.972656 -8.582031 10.609375 -8.1875 L 14.765625 0 L 12.078125 0 L 8.21875 -7.859375 L 4.296875 -7.859375 L 4.296875 0 Z M 4.296875 -9.65625 L 8 -9.65625 C 9.46875 -9.65625 10.535156 -10.007812 11.203125 -10.71875 C 11.878906 -11.425781 12.21875 -12.332031 12.21875 -13.4375 C 12.21875 -14.5625 11.882812 -15.453125 11.21875 -16.109375 C 10.5625 -16.773438 9.476562 -17.109375 7.96875 -17.109375 L 4.296875 -17.109375 Z M 4.296875 -9.65625 "/></g></g></g><g fill="#00bf63" fill-opacity="1"><g transform="translate(629.40215, 250.285162)"><g><path d="M 8.078125 0.328125 C 6.679688 0.328125 5.46875 0.0703125 4.4375 -0.4375 C 3.40625 -0.945312 2.609375 -1.65625 2.046875 -2.5625 C 1.484375 -3.46875 1.203125 -4.519531 1.203125 -5.71875 L 3.59375 -5.71875 C 3.59375 -4.96875 3.765625 -4.28125 4.109375 -3.65625 C 4.453125 -3.03125 4.953125 -2.53125 5.609375 -2.15625 C 6.273438 -1.789062 7.097656 -1.609375 8.078125 -1.609375 C 9.367188 -1.609375 10.363281 -1.914062 11.0625 -2.53125 C 11.769531 -3.144531 12.125 -3.914062 12.125 -4.84375 C 12.125 -5.601562 11.960938 -6.210938 11.640625 -6.671875 C 11.316406 -7.140625 10.878906 -7.519531 10.328125 -7.8125 C 9.773438 -8.101562 9.140625 -8.351562 8.421875 -8.5625 C 7.703125 -8.78125 6.953125 -9.023438 6.171875 -9.296875 C 4.703125 -9.804688 3.613281 -10.4375 2.90625 -11.1875 C 2.195312 -11.945312 1.84375 -12.929688 1.84375 -14.140625 C 1.832031 -15.160156 2.070312 -16.0625 2.5625 -16.84375 C 3.050781 -17.632812 3.742188 -18.253906 4.640625 -18.703125 C 5.535156 -19.148438 6.597656 -19.375 7.828125 -19.375 C 9.046875 -19.375 10.101562 -19.144531 11 -18.6875 C 11.894531 -18.238281 12.59375 -17.613281 13.09375 -16.8125 C 13.59375 -16.007812 13.851562 -15.101562 13.875 -14.09375 L 11.484375 -14.09375 C 11.484375 -14.613281 11.34375 -15.132812 11.0625 -15.65625 C 10.789062 -16.175781 10.378906 -16.597656 9.828125 -16.921875 C 9.273438 -17.242188 8.582031 -17.40625 7.75 -17.40625 C 6.71875 -17.425781 5.867188 -17.164062 5.203125 -16.625 C 4.546875 -16.082031 4.21875 -15.328125 4.21875 -14.359375 C 4.21875 -13.546875 4.445312 -12.921875 4.90625 -12.484375 C 5.375 -12.046875 6.023438 -11.6875 6.859375 -11.40625 C 7.691406 -11.125 8.648438 -10.804688 9.734375 -10.453125 C 10.640625 -10.117188 11.457031 -9.734375 12.1875 -9.296875 C 12.914062 -8.867188 13.484375 -8.304688 13.890625 -7.609375 C 14.296875 -6.921875 14.5 -6.046875 14.5 -4.984375 C 14.5 -4.078125 14.257812 -3.21875 13.78125 -2.40625 C 13.3125 -1.601562 12.601562 -0.945312 11.65625 -0.4375 C 10.707031 0.0703125 9.515625 0.328125 8.078125 0.328125 Z M 8.078125 0.328125 "/></g></g></g><g fill="#00bf63" fill-opacity="1"><g transform="translate(666.879935, 250.285162)"><g/></g></g><g fill="#00bf63" fill-opacity="1"><g transform="translate(695.844977, 250.285162)"><g><path d="M 2.015625 0 L 2.015625 -19.046875 L 4.296875 -19.046875 L 4.296875 0 Z M 2.015625 0 "/></g></g></g><g fill="#00bf63" fill-opacity="1"><g transform="translate(723.912511, 250.285162)"><g><path d="M 2.015625 0 L 2.015625 -19.046875 L 4.296875 -19.046875 L 14.4375 -3.78125 L 14.4375 -19.046875 L 16.734375 -19.046875 L 16.734375 0 L 14.4375 0 L 4.296875 -15.265625 L 4.296875 0 Z M 2.015625 0 "/></g></g></g><g fill="#00bf63" fill-opacity="1"><g transform="translate(764.409188, 250.285162)"><g/></g></g><g fill="#00bf63" fill-opacity="1"><g transform="translate(793.374231, 250.285162)"><g><path d="M 2.015625 0 L 2.015625 -19.046875 L 8.265625 -19.046875 C 9.753906 -19.046875 10.976562 -18.800781 11.9375 -18.3125 C 12.90625 -17.820312 13.617188 -17.160156 14.078125 -16.328125 C 14.535156 -15.492188 14.765625 -14.550781 14.765625 -13.5 C 14.765625 -12.457031 14.535156 -11.519531 14.078125 -10.6875 C 13.628906 -9.851562 12.925781 -9.1875 11.96875 -8.6875 C 11.007812 -8.1875 9.773438 -7.9375 8.265625 -7.9375 L 4.296875 -7.9375 L 4.296875 0 Z M 4.296875 -9.875 L 8.21875 -9.875 C 9.738281 -9.875 10.820312 -10.195312 11.46875 -10.84375 C 12.113281 -11.488281 12.4375 -12.375 12.4375 -13.5 C 12.4375 -14.632812 12.113281 -15.523438 11.46875 -16.171875 C 10.820312 -16.816406 9.738281 -17.140625 8.21875 -17.140625 L 4.296875 -17.140625 Z M 4.296875 -9.875 "/></g></g></g><g fill="#00bf63" fill-opacity="1"><g transform="translate(830.879225, 250.285162)"><g><path d="M 10.65625 0.328125 C 8.789062 0.328125 7.15625 -0.0820312 5.75 -0.90625 C 4.34375 -1.738281 3.242188 -2.894531 2.453125 -4.375 C 1.671875 -5.863281 1.28125 -7.578125 1.28125 -9.515625 C 1.28125 -11.460938 1.671875 -13.171875 2.453125 -14.640625 C 3.242188 -16.117188 4.34375 -17.273438 5.75 -18.109375 C 7.15625 -18.953125 8.789062 -19.375 10.65625 -19.375 C 12.550781 -19.375 14.195312 -18.953125 15.59375 -18.109375 C 17 -17.273438 18.09375 -16.117188 18.875 -14.640625 C 19.65625 -13.171875 20.046875 -11.460938 20.046875 -9.515625 C 20.046875 -7.578125 19.65625 -5.863281 18.875 -4.375 C 18.09375 -2.894531 17 -1.738281 15.59375 -0.90625 C 14.195312 -0.0820312 12.550781 0.328125 10.65625 0.328125 Z M 10.65625 -1.6875 C 12.0625 -1.6875 13.289062 -2 14.34375 -2.625 C 15.40625 -3.25 16.226562 -4.144531 16.8125 -5.3125 C 17.40625 -6.488281 17.703125 -7.890625 17.703125 -9.515625 C 17.703125 -11.148438 17.40625 -12.546875 16.8125 -13.703125 C 16.226562 -14.867188 15.40625 -15.765625 14.34375 -16.390625 C 13.289062 -17.015625 12.0625 -17.328125 10.65625 -17.328125 C 9.257812 -17.328125 8.03125 -17.015625 6.96875 -16.390625 C 5.914062 -15.765625 5.09375 -14.867188 4.5 -13.703125 C 3.914062 -12.546875 3.625 -11.148438 3.625 -9.515625 C 3.625 -7.890625 3.914062 -6.488281 4.5 -5.3125 C 5.09375 -4.144531 5.914062 -3.25 6.96875 -2.625 C 8.03125 -2 9.257812 -1.6875 10.65625 -1.6875 Z M 10.65625 -1.6875 "/></g></g></g><g fill="#00bf63" fill-opacity="1"><g transform="translate(873.959618, 250.285162)"><g><path d="M 8.078125 0.328125 C 6.679688 0.328125 5.46875 0.0703125 4.4375 -0.4375 C 3.40625 -0.945312 2.609375 -1.65625 2.046875 -2.5625 C 1.484375 -3.46875 1.203125 -4.519531 1.203125 -5.71875 L 3.59375 -5.71875 C 3.59375 -4.96875 3.765625 -4.28125 4.109375 -3.65625 C 4.453125 -3.03125 4.953125 -2.53125 5.609375 -2.15625 C 6.273438 -1.789062 7.097656 -1.609375 8.078125 -1.609375 C 9.367188 -1.609375 10.363281 -1.914062 11.0625 -2.53125 C 11.769531 -3.144531 12.125 -3.914062 12.125 -4.84375 C 12.125 -5.601562 11.960938 -6.210938 11.640625 -6.671875 C 11.316406 -7.140625 10.878906 -7.519531 10.328125 -7.8125 C 9.773438 -8.101562 9.140625 -8.351562 8.421875 -8.5625 C 7.703125 -8.78125 6.953125 -9.023438 6.171875 -9.296875 C 4.703125 -9.804688 3.613281 -10.4375 2.90625 -11.1875 C 2.195312 -11.945312 1.84375 -12.929688 1.84375 -14.140625 C 1.832031 -15.160156 2.070312 -16.0625 2.5625 -16.84375 C 3.050781 -17.632812 3.742188 -18.253906 4.640625 -18.703125 C 5.535156 -19.148438 6.597656 -19.375 7.828125 -19.375 C 9.046875 -19.375 10.101562 -19.144531 11 -18.6875 C 11.894531 -18.238281 12.59375 -17.613281 13.09375 -16.8125 C 13.59375 -16.007812 13.851562 -15.101562 13.875 -14.09375 L 11.484375 -14.09375 C 11.484375 -14.613281 11.34375 -15.132812 11.0625 -15.65625 C 10.789062 -16.175781 10.378906 -16.597656 9.828125 -16.921875 C 9.273438 -17.242188 8.582031 -17.40625 7.75 -17.40625 C 6.71875 -17.425781 5.867188 -17.164062 5.203125 -16.625 C 4.546875 -16.082031 4.21875 -15.328125 4.21875 -14.359375 C 4.21875 -13.546875 4.445312 -12.921875 4.90625 -12.484375 C 5.375 -12.046875 6.023438 -11.6875 6.859375 -11.40625 C 7.691406 -11.125 8.648438 -10.804688 9.734375 -10.453125 C 10.640625 -10.117188 11.457031 -9.734375 12.1875 -9.296875 C 12.914062 -8.867188 13.484375 -8.304688 13.890625 -7.609375 C 14.296875 -6.921875 14.5 -6.046875 14.5 -4.984375 C 14.5 -4.078125 14.257812 -3.21875 13.78125 -2.40625 C 13.3125 -1.601562 12.601562 -0.945312 11.65625 -0.4375 C 10.707031 0.0703125 9.515625 0.328125 8.078125 0.328125 Z M 8.078125 0.328125 "/></g></g></g></svg>